<mxfile host="app.diagrams.net" modified="2023-04-29T07:08:05.135Z" agent="Mozilla/5.0 (Windows NT 10.0; Win64; x64) AppleWebKit/537.36 (KHTML, like Gecko) Chrome/112.0.0.0 Safari/537.36" etag="0EHacPfWHTtIIEcSNtyb" version="21.2.3" type="github">
  <diagram name="第 1 页" id="ot7YdEFII3E0DT_-OGoS">
    <mxGraphModel dx="1195" dy="657" grid="1" gridSize="10" guides="1" tooltips="1" connect="1" arrows="1" fold="1" page="1" pageScale="1" pageWidth="827" pageHeight="1169" math="0" shadow="0">
      <root>
        <mxCell id="0" />
        <mxCell id="1" parent="0" />
        <mxCell id="FjALzZloWGZ2IbuRguLo-60" style="edgeStyle=orthogonalEdgeStyle;rounded=0;orthogonalLoop=1;jettySize=auto;html=1;exitX=1;exitY=0.5;exitDx=0;exitDy=0;entryX=0;entryY=0.5;entryDx=0;entryDy=0;" edge="1" parent="1" source="FjALzZloWGZ2IbuRguLo-35" target="FjALzZloWGZ2IbuRguLo-40">
          <mxGeometry relative="1" as="geometry" />
        </mxCell>
        <mxCell id="FjALzZloWGZ2IbuRguLo-35" value="用户A" style="rounded=0;whiteSpace=wrap;html=1;" vertex="1" parent="1">
          <mxGeometry x="115" y="560" width="85" height="40" as="geometry" />
        </mxCell>
        <mxCell id="FjALzZloWGZ2IbuRguLo-61" style="edgeStyle=orthogonalEdgeStyle;rounded=0;orthogonalLoop=1;jettySize=auto;html=1;exitX=0.5;exitY=1;exitDx=0;exitDy=0;entryX=0.5;entryY=0;entryDx=0;entryDy=0;" edge="1" parent="1" source="FjALzZloWGZ2IbuRguLo-40" target="FjALzZloWGZ2IbuRguLo-42">
          <mxGeometry relative="1" as="geometry" />
        </mxCell>
        <mxCell id="FjALzZloWGZ2IbuRguLo-40" value="策略执行点" style="rounded=0;whiteSpace=wrap;html=1;" vertex="1" parent="1">
          <mxGeometry x="320" y="560" width="85" height="40" as="geometry" />
        </mxCell>
        <mxCell id="FjALzZloWGZ2IbuRguLo-54" style="edgeStyle=orthogonalEdgeStyle;rounded=0;orthogonalLoop=1;jettySize=auto;html=1;exitX=0.5;exitY=1;exitDx=0;exitDy=0;entryX=0.5;entryY=0;entryDx=0;entryDy=0;" edge="1" parent="1" source="FjALzZloWGZ2IbuRguLo-42" target="FjALzZloWGZ2IbuRguLo-53">
          <mxGeometry relative="1" as="geometry" />
        </mxCell>
        <mxCell id="FjALzZloWGZ2IbuRguLo-42" value="用户B" style="rounded=0;whiteSpace=wrap;html=1;" vertex="1" parent="1">
          <mxGeometry x="320" y="680" width="85" height="40" as="geometry" />
        </mxCell>
        <mxCell id="FjALzZloWGZ2IbuRguLo-49" value="传输数据x至用户B" style="text;html=1;strokeColor=none;fillColor=none;align=center;verticalAlign=middle;whiteSpace=wrap;rounded=0;" vertex="1" parent="1">
          <mxGeometry x="200" y="555" width="120" height="30" as="geometry" />
        </mxCell>
        <mxCell id="FjALzZloWGZ2IbuRguLo-51" value="标签校验通过，转发数据x" style="text;html=1;align=center;verticalAlign=middle;resizable=0;points=[];autosize=1;strokeColor=none;fillColor=none;" vertex="1" parent="1">
          <mxGeometry x="204" y="620" width="160" height="30" as="geometry" />
        </mxCell>
        <mxCell id="FjALzZloWGZ2IbuRguLo-64" style="edgeStyle=orthogonalEdgeStyle;rounded=0;orthogonalLoop=1;jettySize=auto;html=1;exitX=0;exitY=0.5;exitDx=0;exitDy=0;entryX=1;entryY=0.5;entryDx=0;entryDy=0;" edge="1" parent="1" source="FjALzZloWGZ2IbuRguLo-53" target="FjALzZloWGZ2IbuRguLo-59">
          <mxGeometry relative="1" as="geometry" />
        </mxCell>
        <mxCell id="FjALzZloWGZ2IbuRguLo-53" value="策略执行点" style="rounded=0;whiteSpace=wrap;html=1;" vertex="1" parent="1">
          <mxGeometry x="320" y="800" width="85" height="40" as="geometry" />
        </mxCell>
        <mxCell id="FjALzZloWGZ2IbuRguLo-59" value="用户C" style="rounded=0;whiteSpace=wrap;html=1;" vertex="1" parent="1">
          <mxGeometry x="115" y="800" width="85" height="40" as="geometry" />
        </mxCell>
        <mxCell id="FjALzZloWGZ2IbuRguLo-63" value="传输数据x至用户C" style="text;html=1;strokeColor=none;fillColor=none;align=center;verticalAlign=middle;whiteSpace=wrap;rounded=0;" vertex="1" parent="1">
          <mxGeometry x="235" y="740" width="120" height="30" as="geometry" />
        </mxCell>
        <mxCell id="FjALzZloWGZ2IbuRguLo-65" value="标签校验未通过，拒绝数据转发" style="text;html=1;align=center;verticalAlign=middle;resizable=0;points=[];autosize=1;strokeColor=none;fillColor=none;" vertex="1" parent="1">
          <mxGeometry x="165" y="850" width="190" height="30" as="geometry" />
        </mxCell>
        <mxCell id="FjALzZloWGZ2IbuRguLo-66" value="" style="endArrow=none;html=1;rounded=0;" edge="1" parent="1">
          <mxGeometry width="50" height="50" relative="1" as="geometry">
            <mxPoint x="260" y="830" as="sourcePoint" />
            <mxPoint x="270" y="810" as="targetPoint" />
          </mxGeometry>
        </mxCell>
        <mxCell id="FjALzZloWGZ2IbuRguLo-67" value="" style="endArrow=none;html=1;rounded=0;" edge="1" parent="1">
          <mxGeometry width="50" height="50" relative="1" as="geometry">
            <mxPoint x="260" y="810" as="sourcePoint" />
            <mxPoint x="270" y="830" as="targetPoint" />
          </mxGeometry>
        </mxCell>
      </root>
    </mxGraphModel>
  </diagram>
</mxfile>
